{
	"asset":{
		"generator":"Khronos glTF Blender I/O v3.5.30",
		"version":"2.0"
	},
	"scene":0,
	"scenes":[
		{
			"extras":{
				"scatter5":{
					"emitter":{}
				}
			},
			"name":"Scene",
			"nodes":[
				0,
				1,
				2
			]
		}
	],
	"nodes":[
		{
			"extras":{
				"scatter5":{
					"estimated_square_area":18.78908348083496
				}
			},
			"mesh":0,
			"name":"Cylinder",
			"rotation":[
				0.7071068286895752,
				0,
				0,
				0.7071068286895752
			],
			"scale":[
				0.07945668697357178,
				2.5891613960266113,
				0.07945668697357178
			]
		},
		{
			"extras":{
				"scatter5":{
					"estimated_square_area":12.46568775177002
				}
			},
			"mesh":1,
			"name":"Sphere",
			"scale":[
				0.39766600728034973,
				0.39766573905944824,
				0.39766573905944824
			],
			"translation":[
				0,
				0,
				-2.5891618728637695
			]
		},
		{
			"extras":{
				"scatter5":{
					"estimated_square_area":12.46568775177002
				}
			},
			"mesh":2,
			"name":"Sphere.001",
			"scale":[
				0.39766600728034973,
				0.39766600728034973,
				0.39766600728034973
			],
			"translation":[
				0,
				0,
				2.5891618728637695
			]
		}
	],
	"materials":[
		{
			"doubleSided":true,
			"name":"Material.003",
			"pbrMetallicRoughness":{
				"baseColorFactor":[
					0.1468353569507599,
					0.1468353569507599,
					0.1468353569507599,
					1
				],
				"metallicFactor":0,
				"roughnessFactor":0.5
			}
		},
		{
			"doubleSided":true,
			"name":"Material.001",
			"pbrMetallicRoughness":{
				"baseColorFactor":[
					1,
					0.0073330337181687355,
					0,
					1
				],
				"metallicFactor":0,
				"roughnessFactor":0.5
			}
		},
		{
			"doubleSided":true,
			"name":"Material.002",
			"pbrMetallicRoughness":{
				"baseColorFactor":[
					0,
					0,
					0,
					1
				],
				"metallicFactor":0,
				"roughnessFactor":0.5
			}
		}
	],
	"meshes":[
		{
			"name":"Cylinder",
			"primitives":[
				{
					"attributes":{
						"POSITION":0,
						"TEXCOORD_0":1,
						"NORMAL":2
					},
					"indices":3,
					"material":0
				}
			]
		},
		{
			"name":"Sphere",
			"primitives":[
				{
					"attributes":{
						"POSITION":4,
						"TEXCOORD_0":5,
						"NORMAL":6,
						"TANGENT":7
					},
					"indices":8,
					"material":1
				}
			]
		},
		{
			"name":"Sphere.001",
			"primitives":[
				{
					"attributes":{
						"POSITION":9,
						"TEXCOORD_0":10,
						"NORMAL":11,
						"TANGENT":12
					},
					"indices":8,
					"material":2
				}
			]
		}
	],
	"accessors":[
		{
			"bufferView":0,
			"componentType":5126,
			"count":130,
			"max":[
				1,
				1,
				1
			],
			"min":[
				-1,
				-1,
				-1
			],
			"type":"VEC3"
		},
		{
			"bufferView":1,
			"componentType":5126,
			"count":130,
			"type":"VEC2"
		},
		{
			"bufferView":2,
			"componentType":5126,
			"count":130,
			"type":"VEC3"
		},
		{
			"bufferView":3,
			"componentType":5123,
			"count":372,
			"type":"SCALAR"
		},
		{
			"bufferView":4,
			"componentType":5126,
			"count":559,
			"max":[
				0.9999997019767761,
				1,
				0.9999993443489075
			],
			"min":[
				-0.9999990463256836,
				-1,
				-1
			],
			"type":"VEC3"
		},
		{
			"bufferView":5,
			"componentType":5126,
			"count":559,
			"type":"VEC2"
		},
		{
			"bufferView":6,
			"componentType":5126,
			"count":559,
			"type":"VEC3"
		},
		{
			"bufferView":7,
			"componentType":5126,
			"count":559,
			"type":"VEC4"
		},
		{
			"bufferView":8,
			"componentType":5123,
			"count":2880,
			"type":"SCALAR"
		},
		{
			"bufferView":9,
			"componentType":5126,
			"count":559,
			"max":[
				0.9999997019767761,
				1,
				0.9999993443489075
			],
			"min":[
				-0.9999990463256836,
				-1,
				-1
			],
			"type":"VEC3"
		},
		{
			"bufferView":10,
			"componentType":5126,
			"count":559,
			"type":"VEC2"
		},
		{
			"bufferView":11,
			"componentType":5126,
			"count":559,
			"type":"VEC3"
		},
		{
			"bufferView":12,
			"componentType":5126,
			"count":559,
			"type":"VEC4"
		}
	],
	"bufferViews":[
		{
			"buffer":0,
			"byteLength":1560,
			"byteOffset":0,
			"target":34962
		},
		{
			"buffer":0,
			"byteLength":1040,
			"byteOffset":1560,
			"target":34962
		},
		{
			"buffer":0,
			"byteLength":1560,
			"byteOffset":2600,
			"target":34962
		},
		{
			"buffer":0,
			"byteLength":744,
			"byteOffset":4160,
			"target":34963
		},
		{
			"buffer":0,
			"byteLength":6708,
			"byteOffset":4904,
			"target":34962
		},
		{
			"buffer":0,
			"byteLength":4472,
			"byteOffset":11612,
			"target":34962
		},
		{
			"buffer":0,
			"byteLength":6708,
			"byteOffset":16084,
			"target":34962
		},
		{
			"buffer":0,
			"byteLength":8944,
			"byteOffset":22792,
			"target":34962
		},
		{
			"buffer":0,
			"byteLength":5760,
			"byteOffset":31736,
			"target":34963
		},
		{
			"buffer":0,
			"byteLength":6708,
			"byteOffset":37496,
			"target":34962
		},
		{
			"buffer":0,
			"byteLength":4472,
			"byteOffset":44204,
			"target":34962
		},
		{
			"buffer":0,
			"byteLength":6708,
			"byteOffset":48676,
			"target":34962
		},
		{
			"buffer":0,
			"byteLength":8944,
			"byteOffset":55384,
			"target":34962
		}
	],
	"buffers":[
		{
			"byteLength":64328,
			"uri":"TangentMover-cb4075abf4bef8ae09facf229a3c5d61.bin"
		}
	]
}
